<mxfile host="app.diagrams.net" agent="Mozilla/5.0 (Macintosh; Intel Mac OS X 10_15_7) AppleWebKit/605.1.15 (KHTML, like Gecko) Version/18.1 Safari/605.1.15" version="24.8.3">
  <diagram name="Page-1" id="5dRE9haZwjfNdNg_Jbhj">
    <mxGraphModel dx="1194" dy="797" grid="1" gridSize="10" guides="1" tooltips="1" connect="1" arrows="1" fold="1" page="1" pageScale="1" pageWidth="850" pageHeight="1100" math="0" shadow="0">
      <root>
        <mxCell id="0" />
        <mxCell id="1" parent="0" />
        <mxCell id="c4zuf6fNESYSLhAQH1gj-6" value="&lt;b&gt;&lt;font color=&quot;#ffffff&quot;&gt;1949&lt;/font&gt;&lt;/b&gt;" style="rounded=0;whiteSpace=wrap;html=1;strokeColor=#3399FF;strokeWidth=3;fillColor=#3399FF;gradientColor=none;align=right;" vertex="1" parent="1">
          <mxGeometry x="270" y="160" width="100" height="30" as="geometry" />
        </mxCell>
        <mxCell id="c4zuf6fNESYSLhAQH1gj-7" value="&lt;b&gt;&lt;font color=&quot;#ffffff&quot;&gt;1954&lt;/font&gt;&lt;/b&gt;" style="rounded=0;whiteSpace=wrap;html=1;strokeColor=none;strokeWidth=3;fillColor=#3399FF;align=right;" vertex="1" parent="1">
          <mxGeometry x="270" y="200" width="130" height="30" as="geometry" />
        </mxCell>
        <mxCell id="c4zuf6fNESYSLhAQH1gj-8" value="&lt;b&gt;&lt;font color=&quot;#ffffff&quot;&gt;1960s-1970s&lt;/font&gt;&lt;/b&gt;" style="rounded=0;whiteSpace=wrap;html=1;strokeColor=none;strokeWidth=3;fillColor=#3399FF;align=right;" vertex="1" parent="1">
          <mxGeometry x="270" y="240" width="150" height="30" as="geometry" />
        </mxCell>
        <mxCell id="c4zuf6fNESYSLhAQH1gj-9" value="&lt;b style=&quot;&quot;&gt;&lt;font color=&quot;#ffffff&quot;&gt;1988&lt;/font&gt;&lt;/b&gt;" style="rounded=0;whiteSpace=wrap;html=1;strokeColor=none;strokeWidth=3;fillColor=#33FF33;align=right;" vertex="1" parent="1">
          <mxGeometry x="270" y="280" width="170" height="30" as="geometry" />
        </mxCell>
        <mxCell id="c4zuf6fNESYSLhAQH1gj-10" value="&lt;b&gt;&lt;font color=&quot;#ffffff&quot;&gt;1993&lt;/font&gt;&lt;/b&gt;" style="rounded=0;whiteSpace=wrap;html=1;strokeColor=none;strokeWidth=3;fillColor=#33FF33;align=right;" vertex="1" parent="1">
          <mxGeometry x="270" y="320" width="200" height="30" as="geometry" />
        </mxCell>
        <mxCell id="c4zuf6fNESYSLhAQH1gj-11" value="&lt;b&gt;&lt;font color=&quot;#ffffff&quot;&gt;2003&lt;/font&gt;&lt;/b&gt;" style="rounded=0;whiteSpace=wrap;html=1;strokeColor=none;strokeWidth=3;fillColor=#33FF33;align=right;" vertex="1" parent="1">
          <mxGeometry x="270" y="360" width="230" height="30" as="geometry" />
        </mxCell>
        <mxCell id="c4zuf6fNESYSLhAQH1gj-12" value="&lt;b style=&quot;&quot;&gt;&lt;font color=&quot;#ffffff&quot;&gt;2014&lt;/font&gt;&lt;/b&gt;" style="rounded=0;whiteSpace=wrap;html=1;strokeColor=none;strokeWidth=3;fillColor=#EA6B66;align=right;" vertex="1" parent="1">
          <mxGeometry x="270" y="400" width="300" height="30" as="geometry" />
        </mxCell>
        <mxCell id="c4zuf6fNESYSLhAQH1gj-13" value="&lt;b style=&quot;&quot;&gt;&lt;font color=&quot;#ffffff&quot;&gt;2014&lt;/font&gt;&lt;/b&gt;" style="rounded=0;whiteSpace=wrap;html=1;strokeColor=none;strokeWidth=3;fillColor=#EA6B66;align=right;" vertex="1" parent="1">
          <mxGeometry x="270" y="440" width="300" height="30" as="geometry" />
        </mxCell>
        <mxCell id="c4zuf6fNESYSLhAQH1gj-14" value="&lt;b style=&quot;&quot;&gt;&lt;font color=&quot;#ffffff&quot;&gt;2016&lt;/font&gt;&lt;/b&gt;" style="rounded=0;whiteSpace=wrap;html=1;strokeColor=none;strokeWidth=3;fillColor=#EA6B66;align=right;" vertex="1" parent="1">
          <mxGeometry x="270" y="480" width="340" height="30" as="geometry" />
        </mxCell>
        <mxCell id="c4zuf6fNESYSLhAQH1gj-15" value="&lt;b style=&quot;&quot;&gt;&lt;font color=&quot;#ffffff&quot;&gt;2017&lt;/font&gt;&lt;/b&gt;" style="rounded=0;whiteSpace=wrap;html=1;strokeColor=none;strokeWidth=3;fillColor=#EA6B66;align=right;" vertex="1" parent="1">
          <mxGeometry x="270" y="520" width="380" height="30" as="geometry" />
        </mxCell>
        <mxCell id="c4zuf6fNESYSLhAQH1gj-16" value="&lt;b style=&quot;&quot;&gt;&lt;font color=&quot;#ffffff&quot;&gt;2018&lt;/font&gt;&lt;/b&gt;" style="rounded=0;whiteSpace=wrap;html=1;strokeColor=none;strokeWidth=3;fillColor=#EA6B66;align=right;" vertex="1" parent="1">
          <mxGeometry x="270" y="560" width="420" height="30" as="geometry" />
        </mxCell>
        <mxCell id="c4zuf6fNESYSLhAQH1gj-17" value="&lt;b style=&quot;&quot;&gt;&lt;font color=&quot;#ffffff&quot;&gt;2019&lt;/font&gt;&lt;/b&gt;" style="rounded=0;whiteSpace=wrap;html=1;strokeColor=none;strokeWidth=3;fillColor=#EA6B66;align=right;" vertex="1" parent="1">
          <mxGeometry x="270" y="600" width="460" height="30" as="geometry" />
        </mxCell>
        <mxCell id="c4zuf6fNESYSLhAQH1gj-18" value="&lt;b style=&quot;&quot;&gt;&lt;font color=&quot;#ffffff&quot;&gt;2020&lt;/font&gt;&lt;/b&gt;" style="rounded=0;whiteSpace=wrap;html=1;strokeColor=none;strokeWidth=3;fillColor=#EA6B66;align=right;" vertex="1" parent="1">
          <mxGeometry x="270" y="640" width="500" height="30" as="geometry" />
        </mxCell>
        <mxCell id="c4zuf6fNESYSLhAQH1gj-19" value="&lt;b style=&quot;&quot;&gt;&lt;font color=&quot;#ffffff&quot;&gt;2023&lt;/font&gt;&lt;/b&gt;" style="rounded=0;whiteSpace=wrap;html=1;strokeColor=none;strokeWidth=3;fillColor=#EA6B66;align=right;" vertex="1" parent="1">
          <mxGeometry x="270" y="680" width="520" height="30" as="geometry" />
        </mxCell>
        <mxCell id="c4zuf6fNESYSLhAQH1gj-21" value="" style="endArrow=none;html=1;rounded=0;strokeColor=#FFFFFF;strokeWidth=3;" edge="1" parent="1">
          <mxGeometry width="50" height="50" relative="1" as="geometry">
            <mxPoint x="270" y="810" as="sourcePoint" />
            <mxPoint x="270" y="60" as="targetPoint" />
          </mxGeometry>
        </mxCell>
        <mxCell id="c4zuf6fNESYSLhAQH1gj-22" value="&lt;b&gt;&lt;font color=&quot;#ffffff&quot;&gt;2024&lt;/font&gt;&lt;/b&gt;" style="rounded=0;whiteSpace=wrap;html=1;strokeColor=none;strokeWidth=3;fillColor=#EA6B66;align=right;" vertex="1" parent="1">
          <mxGeometry x="270" y="720" width="550" height="30" as="geometry" />
        </mxCell>
        <mxCell id="c4zuf6fNESYSLhAQH1gj-23" value="" style="whiteSpace=wrap;html=1;aspect=fixed;fillColor=#000000;movable=1;resizable=1;rotatable=1;deletable=1;editable=1;locked=0;connectable=1;gradientColor=default;strokeColor=#4D4D4D;" vertex="1" parent="1">
          <mxGeometry x="280" y="70" width="70" height="70" as="geometry" />
        </mxCell>
        <mxCell id="c4zuf6fNESYSLhAQH1gj-33" value="" style="group" vertex="1" connectable="0" parent="1">
          <mxGeometry x="280" y="80" width="70" height="50" as="geometry" />
        </mxCell>
        <mxCell id="c4zuf6fNESYSLhAQH1gj-24" value="" style="rounded=0;whiteSpace=wrap;html=1;strokeColor=none;fillColor=#3399FF;movable=1;resizable=1;rotatable=1;deletable=1;editable=1;locked=0;connectable=1;container=0;" vertex="1" parent="c4zuf6fNESYSLhAQH1gj-33">
          <mxGeometry width="40" height="10" as="geometry" />
        </mxCell>
        <mxCell id="c4zuf6fNESYSLhAQH1gj-25" value="" style="rounded=0;whiteSpace=wrap;html=1;strokeColor=none;fillColor=#33FF33;movable=1;resizable=1;rotatable=1;deletable=1;editable=1;locked=0;connectable=1;container=0;" vertex="1" parent="c4zuf6fNESYSLhAQH1gj-33">
          <mxGeometry y="20" width="40" height="10" as="geometry" />
        </mxCell>
        <mxCell id="c4zuf6fNESYSLhAQH1gj-26" value="" style="rounded=0;whiteSpace=wrap;html=1;strokeColor=none;fillColor=#EA6B66;movable=1;resizable=1;rotatable=1;deletable=1;editable=1;locked=0;connectable=1;container=0;" vertex="1" parent="c4zuf6fNESYSLhAQH1gj-33">
          <mxGeometry y="40" width="40" height="10" as="geometry" />
        </mxCell>
        <mxCell id="c4zuf6fNESYSLhAQH1gj-27" value="&lt;b&gt;&lt;font style=&quot;font-size: 9px;&quot; color=&quot;#ffffff&quot;&gt;RBMT&lt;/font&gt;&lt;/b&gt;" style="text;html=1;align=center;verticalAlign=middle;whiteSpace=wrap;rounded=0;movable=1;resizable=1;rotatable=1;deletable=1;editable=1;locked=0;connectable=1;container=0;" vertex="1" parent="c4zuf6fNESYSLhAQH1gj-33">
          <mxGeometry x="40" width="30" height="10" as="geometry" />
        </mxCell>
        <mxCell id="c4zuf6fNESYSLhAQH1gj-28" value="&lt;b&gt;&lt;font style=&quot;font-size: 9px;&quot; color=&quot;#ffffff&quot;&gt;SMT&lt;/font&gt;&lt;/b&gt;" style="text;html=1;align=center;verticalAlign=middle;whiteSpace=wrap;rounded=0;movable=1;resizable=1;rotatable=1;deletable=1;editable=1;locked=0;connectable=1;container=0;" vertex="1" parent="c4zuf6fNESYSLhAQH1gj-33">
          <mxGeometry x="40" y="20" width="30" height="10" as="geometry" />
        </mxCell>
        <mxCell id="c4zuf6fNESYSLhAQH1gj-29" value="&lt;b&gt;&lt;font style=&quot;font-size: 9px;&quot; color=&quot;#ffffff&quot;&gt;NMT&lt;/font&gt;&lt;/b&gt;" style="text;html=1;align=center;verticalAlign=middle;whiteSpace=wrap;rounded=0;movable=1;resizable=1;rotatable=1;deletable=1;editable=1;locked=0;connectable=1;container=0;" vertex="1" parent="c4zuf6fNESYSLhAQH1gj-33">
          <mxGeometry x="40" y="40" width="30" height="10" as="geometry" />
        </mxCell>
        <mxCell id="c4zuf6fNESYSLhAQH1gj-34" value="&lt;strong style=&quot;text-align: start;&quot;&gt;&lt;font color=&quot;#ffffff&quot;&gt;Warren Weaver&#39;s Memorandum&lt;/font&gt;&lt;/strong&gt;" style="text;html=1;align=center;verticalAlign=middle;whiteSpace=wrap;rounded=0;" vertex="1" parent="1">
          <mxGeometry x="40" y="160" width="230" height="30" as="geometry" />
        </mxCell>
        <mxCell id="c4zuf6fNESYSLhAQH1gj-36" value="&lt;strong style=&quot;text-align: start;&quot;&gt;&lt;font color=&quot;#ffffff&quot;&gt;Georgetown-IBM Experiment&lt;/font&gt;&lt;/strong&gt;" style="text;html=1;align=center;verticalAlign=middle;whiteSpace=wrap;rounded=0;" vertex="1" parent="1">
          <mxGeometry x="40" y="200" width="230" height="30" as="geometry" />
        </mxCell>
        <mxCell id="c4zuf6fNESYSLhAQH1gj-37" value="&lt;strong style=&quot;text-align: start;&quot;&gt;&lt;font color=&quot;#ffffff&quot;&gt;Development of Early RBMT Systems&lt;/font&gt;&lt;/strong&gt;" style="text;html=1;align=center;verticalAlign=middle;whiteSpace=wrap;rounded=0;" vertex="1" parent="1">
          <mxGeometry x="40" y="240" width="230" height="30" as="geometry" />
        </mxCell>
        <mxCell id="c4zuf6fNESYSLhAQH1gj-38" value="&lt;strong style=&quot;text-align: start;&quot;&gt;&lt;font color=&quot;#ffffff&quot;&gt;Emergence of SMT Theory&lt;/font&gt;&lt;/strong&gt;" style="text;html=1;align=center;verticalAlign=middle;whiteSpace=wrap;rounded=0;" vertex="1" parent="1">
          <mxGeometry x="40" y="280" width="230" height="30" as="geometry" />
        </mxCell>
        <mxCell id="c4zuf6fNESYSLhAQH1gj-39" value="&lt;strong style=&quot;text-align: start;&quot;&gt;&lt;font color=&quot;#ffffff&quot;&gt;IBM&#39;s Candide System&lt;/font&gt;&lt;/strong&gt;" style="text;html=1;align=center;verticalAlign=middle;whiteSpace=wrap;rounded=0;" vertex="1" parent="1">
          <mxGeometry x="40" y="320" width="230" height="30" as="geometry" />
        </mxCell>
        <mxCell id="c4zuf6fNESYSLhAQH1gj-40" value="&lt;strong style=&quot;text-align: start;&quot;&gt;&lt;font color=&quot;#ffffff&quot;&gt;Phrase-Based SMT Models&lt;/font&gt;&lt;/strong&gt;" style="text;html=1;align=center;verticalAlign=middle;whiteSpace=wrap;rounded=0;" vertex="1" parent="1">
          <mxGeometry x="40" y="360" width="230" height="30" as="geometry" />
        </mxCell>
        <mxCell id="c4zuf6fNESYSLhAQH1gj-41" value="&lt;strong style=&quot;text-align: start;&quot;&gt;&lt;font color=&quot;#ffffff&quot;&gt;Sequence-to-Sequence Models&lt;/font&gt;&lt;/strong&gt;" style="text;html=1;align=center;verticalAlign=middle;whiteSpace=wrap;rounded=0;" vertex="1" parent="1">
          <mxGeometry x="40" y="400" width="230" height="30" as="geometry" />
        </mxCell>
        <mxCell id="c4zuf6fNESYSLhAQH1gj-42" value="&lt;strong style=&quot;text-align: start;&quot;&gt;&lt;font color=&quot;#ffffff&quot;&gt;RNN Encoder-Decoder with Attention&lt;/font&gt;&lt;/strong&gt;" style="text;html=1;align=center;verticalAlign=middle;whiteSpace=wrap;rounded=0;" vertex="1" parent="1">
          <mxGeometry x="40" y="440" width="230" height="30" as="geometry" />
        </mxCell>
        <mxCell id="c4zuf6fNESYSLhAQH1gj-43" value="&lt;strong style=&quot;text-align: start;&quot;&gt;&lt;font color=&quot;#ffffff&quot;&gt;Google Neural Machine Translation&amp;nbsp;&lt;/font&gt;&lt;/strong&gt;" style="text;html=1;align=center;verticalAlign=middle;whiteSpace=wrap;rounded=0;" vertex="1" parent="1">
          <mxGeometry x="40" y="480" width="230" height="30" as="geometry" />
        </mxCell>
        <mxCell id="c4zuf6fNESYSLhAQH1gj-44" value="&lt;strong style=&quot;text-align: start;&quot;&gt;&lt;font color=&quot;#ffffff&quot;&gt;Transformer Architecture&lt;/font&gt;&lt;/strong&gt;" style="text;html=1;align=center;verticalAlign=middle;whiteSpace=wrap;rounded=0;" vertex="1" parent="1">
          <mxGeometry x="40" y="520" width="230" height="30" as="geometry" />
        </mxCell>
        <mxCell id="c4zuf6fNESYSLhAQH1gj-45" value="&lt;strong style=&quot;text-align: start;&quot;&gt;&lt;font color=&quot;#ffffff&quot;&gt;BERT Model&lt;/font&gt;&lt;/strong&gt;" style="text;html=1;align=center;verticalAlign=middle;whiteSpace=wrap;rounded=0;" vertex="1" parent="1">
          <mxGeometry x="40" y="560" width="230" height="30" as="geometry" />
        </mxCell>
        <mxCell id="c4zuf6fNESYSLhAQH1gj-46" value="&lt;strong style=&quot;text-align: start;&quot;&gt;&lt;font color=&quot;#ffffff&quot;&gt;GPT-2 by OpenAI&lt;/font&gt;&lt;/strong&gt;" style="text;html=1;align=center;verticalAlign=middle;whiteSpace=wrap;rounded=0;" vertex="1" parent="1">
          <mxGeometry x="40" y="600" width="230" height="30" as="geometry" />
        </mxCell>
        <mxCell id="c4zuf6fNESYSLhAQH1gj-47" value="&lt;strong style=&quot;text-align: start;&quot;&gt;&lt;font color=&quot;#ffffff&quot;&gt;GPT-3 and Multilingual Models&lt;/font&gt;&lt;/strong&gt;" style="text;html=1;align=center;verticalAlign=middle;whiteSpace=wrap;rounded=0;" vertex="1" parent="1">
          <mxGeometry x="40" y="640" width="230" height="30" as="geometry" />
        </mxCell>
        <mxCell id="c4zuf6fNESYSLhAQH1gj-48" value="&lt;strong style=&quot;text-align: start;&quot;&gt;&lt;font color=&quot;#ffffff&quot;&gt;OpenAI&#39;s ChatGPT&lt;/font&gt;&lt;/strong&gt;" style="text;html=1;align=center;verticalAlign=middle;whiteSpace=wrap;rounded=0;" vertex="1" parent="1">
          <mxGeometry x="40" y="680" width="230" height="30" as="geometry" />
        </mxCell>
        <mxCell id="c4zuf6fNESYSLhAQH1gj-49" value="&lt;strong style=&quot;text-align: start;&quot;&gt;&lt;font color=&quot;#ffffff&quot;&gt;OpenAI&#39;s GPT-4 Release&lt;/font&gt;&lt;/strong&gt;" style="text;html=1;align=center;verticalAlign=middle;whiteSpace=wrap;rounded=0;" vertex="1" parent="1">
          <mxGeometry x="40" y="720" width="230" height="30" as="geometry" />
        </mxCell>
        <mxCell id="c4zuf6fNESYSLhAQH1gj-50" value="" style="endArrow=none;html=1;rounded=0;strokeColor=#FFFFFF;strokeWidth=3;" edge="1" parent="1">
          <mxGeometry width="50" height="50" relative="1" as="geometry">
            <mxPoint x="270" y="810" as="sourcePoint" />
            <mxPoint x="840" y="810" as="targetPoint" />
          </mxGeometry>
        </mxCell>
        <mxCell id="c4zuf6fNESYSLhAQH1gj-51" value="&lt;font color=&quot;#ffffff&quot;&gt;1949&lt;/font&gt;" style="text;html=1;align=center;verticalAlign=middle;resizable=0;points=[];autosize=1;strokeColor=none;fillColor=none;" vertex="1" parent="1">
          <mxGeometry x="260" y="809" width="50" height="30" as="geometry" />
        </mxCell>
        <mxCell id="c4zuf6fNESYSLhAQH1gj-52" value="&lt;font color=&quot;#ffffff&quot;&gt;1954&lt;/font&gt;" style="text;html=1;align=center;verticalAlign=middle;resizable=0;points=[];autosize=1;strokeColor=none;fillColor=none;" vertex="1" parent="1">
          <mxGeometry x="295" y="809" width="50" height="30" as="geometry" />
        </mxCell>
        <mxCell id="c4zuf6fNESYSLhAQH1gj-53" value="&lt;font color=&quot;#ffffff&quot;&gt;1960-1970&lt;/font&gt;" style="text;html=1;align=center;verticalAlign=middle;resizable=0;points=[];autosize=1;strokeColor=none;fillColor=none;" vertex="1" parent="1">
          <mxGeometry x="340" y="809" width="80" height="30" as="geometry" />
        </mxCell>
        <mxCell id="c4zuf6fNESYSLhAQH1gj-54" value="&lt;font color=&quot;#ffffff&quot;&gt;&lt;span style=&quot;caret-color: rgb(255, 255, 255);&quot;&gt;1993&lt;/span&gt;&lt;/font&gt;" style="text;html=1;align=center;verticalAlign=middle;resizable=0;points=[];autosize=1;strokeColor=none;fillColor=none;" vertex="1" parent="1">
          <mxGeometry x="450" y="809" width="50" height="30" as="geometry" />
        </mxCell>
        <mxCell id="c4zuf6fNESYSLhAQH1gj-55" value="&lt;font color=&quot;#ffffff&quot;&gt;2014&lt;/font&gt;" style="text;html=1;align=center;verticalAlign=middle;resizable=0;points=[];autosize=1;strokeColor=none;fillColor=none;" vertex="1" parent="1">
          <mxGeometry x="520" y="809" width="50" height="30" as="geometry" />
        </mxCell>
        <mxCell id="c4zuf6fNESYSLhAQH1gj-56" value="&lt;font color=&quot;#ffffff&quot;&gt;2003&lt;/font&gt;" style="text;html=1;align=center;verticalAlign=middle;resizable=0;points=[];autosize=1;strokeColor=none;fillColor=none;" vertex="1" parent="1">
          <mxGeometry x="480" y="809" width="50" height="30" as="geometry" />
        </mxCell>
        <mxCell id="c4zuf6fNESYSLhAQH1gj-57" value="&lt;font color=&quot;#ffffff&quot;&gt;2017&lt;/font&gt;" style="text;html=1;align=center;verticalAlign=middle;resizable=0;points=[];autosize=1;strokeColor=none;fillColor=none;" vertex="1" parent="1">
          <mxGeometry x="594" y="809" width="50" height="30" as="geometry" />
        </mxCell>
        <mxCell id="c4zuf6fNESYSLhAQH1gj-58" value="&lt;font color=&quot;#ffffff&quot;&gt;2018&lt;/font&gt;" style="text;html=1;align=center;verticalAlign=middle;resizable=0;points=[];autosize=1;strokeColor=none;fillColor=none;" vertex="1" parent="1">
          <mxGeometry x="633" y="809" width="50" height="30" as="geometry" />
        </mxCell>
        <mxCell id="c4zuf6fNESYSLhAQH1gj-59" value="&lt;font color=&quot;#ffffff&quot;&gt;&lt;span style=&quot;caret-color: rgb(255, 255, 255);&quot;&gt;2020&lt;/span&gt;&lt;/font&gt;" style="text;html=1;align=center;verticalAlign=middle;resizable=0;points=[];autosize=1;strokeColor=none;fillColor=none;" vertex="1" parent="1">
          <mxGeometry x="720" y="809" width="50" height="30" as="geometry" />
        </mxCell>
        <mxCell id="c4zuf6fNESYSLhAQH1gj-60" value="&lt;font color=&quot;#ffffff&quot;&gt;2023&lt;/font&gt;" style="text;html=1;align=center;verticalAlign=middle;resizable=0;points=[];autosize=1;strokeColor=none;fillColor=none;" vertex="1" parent="1">
          <mxGeometry x="750" y="809" width="50" height="30" as="geometry" />
        </mxCell>
        <mxCell id="c4zuf6fNESYSLhAQH1gj-61" value="&lt;font color=&quot;#ffffff&quot;&gt;1988&lt;/font&gt;" style="text;html=1;align=center;verticalAlign=middle;resizable=0;points=[];autosize=1;strokeColor=none;fillColor=none;" vertex="1" parent="1">
          <mxGeometry x="410" y="809" width="50" height="30" as="geometry" />
        </mxCell>
        <mxCell id="c4zuf6fNESYSLhAQH1gj-62" value="&lt;font color=&quot;#ffffff&quot;&gt;2016&lt;/font&gt;" style="text;html=1;align=center;verticalAlign=middle;resizable=0;points=[];autosize=1;strokeColor=none;fillColor=none;" vertex="1" parent="1">
          <mxGeometry x="555" y="809" width="50" height="30" as="geometry" />
        </mxCell>
        <mxCell id="c4zuf6fNESYSLhAQH1gj-63" value="&lt;font color=&quot;#ffffff&quot;&gt;2019&lt;/font&gt;" style="text;html=1;align=center;verticalAlign=middle;resizable=0;points=[];autosize=1;strokeColor=none;fillColor=none;" vertex="1" parent="1">
          <mxGeometry x="672" y="809" width="50" height="30" as="geometry" />
        </mxCell>
        <mxCell id="c4zuf6fNESYSLhAQH1gj-65" value="&lt;font color=&quot;#ffffff&quot;&gt;2024&lt;/font&gt;" style="text;html=1;align=center;verticalAlign=middle;resizable=0;points=[];autosize=1;strokeColor=none;fillColor=none;" vertex="1" parent="1">
          <mxGeometry x="790" y="809" width="50" height="30" as="geometry" />
        </mxCell>
        <mxCell id="c4zuf6fNESYSLhAQH1gj-67" value="" style="endArrow=none;html=1;rounded=0;strokeColor=#FFFFFF;strokeWidth=2;" edge="1" parent="1">
          <mxGeometry width="50" height="50" relative="1" as="geometry">
            <mxPoint x="294" y="809" as="sourcePoint" />
            <mxPoint x="294" y="800" as="targetPoint" />
          </mxGeometry>
        </mxCell>
        <mxCell id="c4zuf6fNESYSLhAQH1gj-69" value="" style="endArrow=none;html=1;rounded=0;strokeColor=#FFFFFF;strokeWidth=2;" edge="1" parent="1">
          <mxGeometry width="50" height="50" relative="1" as="geometry">
            <mxPoint x="319.5" y="809" as="sourcePoint" />
            <mxPoint x="319.5" y="800" as="targetPoint" />
          </mxGeometry>
        </mxCell>
        <mxCell id="c4zuf6fNESYSLhAQH1gj-75" value="" style="endArrow=none;html=1;rounded=0;strokeColor=#FFFFFF;strokeWidth=2;" edge="1" parent="1">
          <mxGeometry width="50" height="50" relative="1" as="geometry">
            <mxPoint x="379.5" y="809" as="sourcePoint" />
            <mxPoint x="379.5" y="800" as="targetPoint" />
          </mxGeometry>
        </mxCell>
        <mxCell id="c4zuf6fNESYSLhAQH1gj-77" value="" style="endArrow=none;html=1;rounded=0;strokeColor=#FFFFFF;strokeWidth=2;" edge="1" parent="1">
          <mxGeometry width="50" height="50" relative="1" as="geometry">
            <mxPoint x="434.5" y="809" as="sourcePoint" />
            <mxPoint x="434.5" y="800" as="targetPoint" />
          </mxGeometry>
        </mxCell>
        <mxCell id="c4zuf6fNESYSLhAQH1gj-78" value="" style="endArrow=none;html=1;rounded=0;strokeColor=#FFFFFF;strokeWidth=2;" edge="1" parent="1">
          <mxGeometry width="50" height="50" relative="1" as="geometry">
            <mxPoint x="544.5" y="809" as="sourcePoint" />
            <mxPoint x="544.5" y="800" as="targetPoint" />
          </mxGeometry>
        </mxCell>
        <mxCell id="c4zuf6fNESYSLhAQH1gj-79" value="" style="endArrow=none;html=1;rounded=0;strokeColor=#FFFFFF;strokeWidth=2;" edge="1" parent="1">
          <mxGeometry width="50" height="50" relative="1" as="geometry">
            <mxPoint x="504.5" y="809" as="sourcePoint" />
            <mxPoint x="504.5" y="800" as="targetPoint" />
          </mxGeometry>
        </mxCell>
        <mxCell id="c4zuf6fNESYSLhAQH1gj-80" value="" style="endArrow=none;html=1;rounded=0;strokeColor=#FFFFFF;strokeWidth=2;" edge="1" parent="1">
          <mxGeometry width="50" height="50" relative="1" as="geometry">
            <mxPoint x="474.5" y="809" as="sourcePoint" />
            <mxPoint x="474.5" y="800" as="targetPoint" />
          </mxGeometry>
        </mxCell>
        <mxCell id="c4zuf6fNESYSLhAQH1gj-81" value="" style="endArrow=none;html=1;rounded=0;strokeColor=#FFFFFF;strokeWidth=2;" edge="1" parent="1">
          <mxGeometry width="50" height="50" relative="1" as="geometry">
            <mxPoint x="579.5" y="809" as="sourcePoint" />
            <mxPoint x="579.5" y="800" as="targetPoint" />
          </mxGeometry>
        </mxCell>
        <mxCell id="c4zuf6fNESYSLhAQH1gj-82" value="" style="endArrow=none;html=1;rounded=0;strokeColor=#FFFFFF;strokeWidth=2;" edge="1" parent="1">
          <mxGeometry width="50" height="50" relative="1" as="geometry">
            <mxPoint x="618.5" y="809" as="sourcePoint" />
            <mxPoint x="618.5" y="800" as="targetPoint" />
          </mxGeometry>
        </mxCell>
        <mxCell id="c4zuf6fNESYSLhAQH1gj-83" value="" style="endArrow=none;html=1;rounded=0;strokeColor=#FFFFFF;strokeWidth=2;" edge="1" parent="1">
          <mxGeometry width="50" height="50" relative="1" as="geometry">
            <mxPoint x="657.5" y="809" as="sourcePoint" />
            <mxPoint x="657.5" y="800" as="targetPoint" />
          </mxGeometry>
        </mxCell>
        <mxCell id="c4zuf6fNESYSLhAQH1gj-84" value="" style="endArrow=none;html=1;rounded=0;strokeColor=#FFFFFF;strokeWidth=2;" edge="1" parent="1">
          <mxGeometry width="50" height="50" relative="1" as="geometry">
            <mxPoint x="696.5" y="809" as="sourcePoint" />
            <mxPoint x="696.5" y="800" as="targetPoint" />
          </mxGeometry>
        </mxCell>
        <mxCell id="c4zuf6fNESYSLhAQH1gj-85" value="" style="endArrow=none;html=1;rounded=0;strokeColor=#FFFFFF;strokeWidth=2;" edge="1" parent="1">
          <mxGeometry width="50" height="50" relative="1" as="geometry">
            <mxPoint x="740" y="809" as="sourcePoint" />
            <mxPoint x="740" y="800" as="targetPoint" />
          </mxGeometry>
        </mxCell>
        <mxCell id="c4zuf6fNESYSLhAQH1gj-86" value="" style="endArrow=none;html=1;rounded=0;strokeColor=#FFFFFF;strokeWidth=2;" edge="1" parent="1">
          <mxGeometry width="50" height="50" relative="1" as="geometry">
            <mxPoint x="774.5" y="809" as="sourcePoint" />
            <mxPoint x="774.5" y="800" as="targetPoint" />
          </mxGeometry>
        </mxCell>
        <mxCell id="c4zuf6fNESYSLhAQH1gj-87" value="" style="endArrow=none;html=1;rounded=0;strokeColor=#FFFFFF;strokeWidth=2;" edge="1" parent="1">
          <mxGeometry width="50" height="50" relative="1" as="geometry">
            <mxPoint x="814.5" y="809" as="sourcePoint" />
            <mxPoint x="814.5" y="800" as="targetPoint" />
          </mxGeometry>
        </mxCell>
        <mxCell id="c4zuf6fNESYSLhAQH1gj-88" value="&lt;font size=&quot;1&quot; color=&quot;#ffffff&quot;&gt;&lt;b style=&quot;font-size: 13px;&quot;&gt;Event&lt;/b&gt;&lt;/font&gt;" style="text;html=1;align=center;verticalAlign=middle;resizable=0;points=[];autosize=1;strokeColor=none;fillColor=none;rotation=270;" vertex="1" parent="1">
          <mxGeometry x="-10" y="370" width="60" height="30" as="geometry" />
        </mxCell>
        <mxCell id="c4zuf6fNESYSLhAQH1gj-89" value="&lt;font color=&quot;#ffffff&quot; style=&quot;font-size: 14px;&quot;&gt;&lt;b&gt;Year&lt;/b&gt;&lt;/font&gt;" style="text;html=1;align=center;verticalAlign=middle;resizable=0;points=[];autosize=1;strokeColor=none;fillColor=none;" vertex="1" parent="1">
          <mxGeometry x="435" y="888" width="50" height="30" as="geometry" />
        </mxCell>
      </root>
    </mxGraphModel>
  </diagram>
</mxfile>
